<svg xmlns="http://www.w3.org/2000/svg" xmlns:xlink="http://www.w3.org/1999/xlink" width="175.448" height="120.699" viewBox="0 0 175.448 120.699"><defs><filter id="a" x="0" y="0" width="175.448" height="120.699" filterUnits="userSpaceOnUse"><feOffset dy="3" input="SourceAlpha"/><feGaussianBlur stdDeviation="3" result="b"/><feFlood flood-opacity="0.161"/><feComposite operator="in" in2="b"/><feComposite in="SourceGraphic"/></filter><filter id="c" x="74.121" y="21.524" width="27.224" height="35.922" filterUnits="userSpaceOnUse"><feOffset dy="3" input="SourceAlpha"/><feGaussianBlur stdDeviation="3" result="d"/><feFlood flood-opacity="0.161"/><feComposite operator="in" in2="d"/><feComposite in="SourceGraphic"/></filter><filter id="e" x="47.83" y="28.567" width="31.58" height="34.759" filterUnits="userSpaceOnUse"><feOffset dy="3" input="SourceAlpha"/><feGaussianBlur stdDeviation="3" result="f"/><feFlood flood-opacity="0.161"/><feComposite operator="in" in2="f"/><feComposite in="SourceGraphic"/></filter><filter id="g" x="28.585" y="47.812" width="34.755" height="31.575" filterUnits="userSpaceOnUse"><feOffset dy="3" input="SourceAlpha"/><feGaussianBlur stdDeviation="3" result="h"/><feFlood flood-opacity="0.161"/><feComposite operator="in" in2="h"/><feComposite in="SourceGraphic"/></filter><filter id="i" x="21.541" y="74.103" width="35.922" height="27.224" filterUnits="userSpaceOnUse"><feOffset dy="3" input="SourceAlpha"/><feGaussianBlur stdDeviation="3" result="j"/><feFlood flood-opacity="0.161"/><feComposite operator="in" in2="j"/><feComposite in="SourceGraphic"/></filter><filter id="k" x="118.002" y="74.103" width="35.922" height="27.224" filterUnits="userSpaceOnUse"><feOffset dy="3" input="SourceAlpha"/><feGaussianBlur stdDeviation="3" result="l"/><feFlood flood-opacity="0.161"/><feComposite operator="in" in2="l"/><feComposite in="SourceGraphic"/></filter><filter id="m" x="112.122" y="47.813" width="34.758" height="31.575" filterUnits="userSpaceOnUse"><feOffset dy="3" input="SourceAlpha"/><feGaussianBlur stdDeviation="3" result="n"/><feFlood flood-opacity="0.161"/><feComposite operator="in" in2="n"/><feComposite in="SourceGraphic"/></filter><filter id="o" x="96.061" y="28.567" width="31.575" height="34.759" filterUnits="userSpaceOnUse"><feOffset dy="3" input="SourceAlpha"/><feGaussianBlur stdDeviation="3" result="p"/><feFlood flood-opacity="0.161"/><feComposite operator="in" in2="p"/><feComposite in="SourceGraphic"/></filter><filter id="q" x="74.115" y="59.652" width="41.681" height="41.676" filterUnits="userSpaceOnUse"><feOffset dy="3" input="SourceAlpha"/><feGaussianBlur stdDeviation="3" result="r"/><feFlood flood-opacity="0.161"/><feComposite operator="in" in2="r"/><feComposite in="SourceGraphic"/></filter></defs><g transform="translate(9 5.972)"><g transform="matrix(1, 0, 0, 1, -9, -5.97)" filter="url(#a)"><path d="M134.393,23.083A78.728,78.728,0,0,0,2.736,99.32a4.611,4.611,0,0,0,4.452,3.407h143.09a4.611,4.611,0,0,0,4.452-3.407,78.843,78.843,0,0,0-20.337-76.237ZM146.653,93.5H10.814C1.4,50.091,34.646,9.253,78.733,9.253c44.053,0,77.34,40.8,67.919,84.25Z" transform="translate(9 5.97)" fill="#fff"/></g><g transform="matrix(1, 0, 0, 1, -9, -5.97)" filter="url(#c)"><path d="M245.643,87.943a4.612,4.612,0,0,0,4.612-4.612v-8.7a4.612,4.612,0,1,0-9.224,0v8.7A4.612,4.612,0,0,0,245.643,87.943Z" transform="translate(-157.91 -42.5)" fill="#fff"/></g><g transform="matrix(1, 0, 0, 1, -9, -5.97)" filter="url(#e)"><path d="M164.146,95.231a4.612,4.612,0,0,0-7.989,4.612l4.349,7.533a4.612,4.612,0,1,0,7.989-4.612Z" transform="translate(-98.71 -58.36)" fill="#fff"/></g><g transform="matrix(1, 0, 0, 1, -9, -5.97)" filter="url(#g)"><path d="M107.406,160.476l-7.532-4.349a4.612,4.612,0,0,0-4.612,7.989c8.189,4.728,8.237,4.968,9.834,4.968A4.617,4.617,0,0,0,107.406,160.476Z" transform="translate(-55.37 -101.7)" fill="#fff"/></g><g transform="matrix(1, 0, 0, 1, -9, -5.97)" filter="url(#i)"><path d="M83.36,241h-8.7a4.612,4.612,0,1,0,0,9.224h8.7a4.612,4.612,0,0,0,0-9.224Z" transform="translate(-39.51 -160.9)" fill="#fff"/></g><g transform="matrix(1, 0, 0, 1, -9, -5.97)" filter="url(#k)"><path d="M383.727,245.614a4.612,4.612,0,0,0,4.612,4.612h8.7a4.612,4.612,0,0,0,0-9.224h-8.7a4.612,4.612,0,0,0-4.612,4.612Z" transform="translate(-256.73 -160.9)" fill="#fff"/></g><g transform="matrix(1, 0, 0, 1, -9, -5.97)" filter="url(#m)"><path d="M374.447,156.127l-7.532,4.349a4.612,4.612,0,0,0,4.612,7.989l7.532-4.349a4.612,4.612,0,0,0-4.612-7.989Z" transform="translate(-243.49 -101.7)" fill="#fff"/></g><g transform="matrix(1, 0, 0, 1, -9, -5.97)" filter="url(#o)"><path d="M323.645,93.544a4.612,4.612,0,0,0-6.3,1.688L313,102.764a4.612,4.612,0,0,0,7.989,4.612l4.349-7.533A4.612,4.612,0,0,0,323.645,93.544Z" transform="translate(-207.32 -58.36)" fill="#fff"/></g><g transform="matrix(1, 0, 0, 1, -9, -5.97)" filter="url(#q)"><path d="M256.82,195.358,242.369,209.81a4.612,4.612,0,1,0,6.522,6.523l14.452-14.452a4.612,4.612,0,0,0-6.522-6.523Z" transform="translate(-157.9 -128.36)" fill="#fff"/></g></g></svg>