<svg xmlns="http://www.w3.org/2000/svg" width="375.447" height="641.606" viewBox="0 0 375.447 641.606"><g transform="translate(-0.054 -170.896)"><path d="M-794.5,686.5l-311.8,0-63.65-237.9V181.362c.5.641.973,1.261,1.393,1.841a40.431,40.431,0,0,1,20.618-7.818c1.189-.1,2.394-.157,3.582-.157a40.386,40.386,0,0,1,21.554,6.229,40.387,40.387,0,0,1,14.749,16.357,29.845,29.845,0,0,1,6.168-7.134,29.961,29.961,0,0,1,9.4-5.349,32.4,32.4,0,0,1,10.735-1.787,38.234,38.234,0,0,1,15,3.164,23.032,23.032,0,0,1,7.481-12.146,23.172,23.172,0,0,1,15.133-5.337,28.841,28.841,0,0,1,10.8,2.154,33.057,33.057,0,0,1,9.965,6.312,24.368,24.368,0,0,1,12.069-3.09,29.256,29.256,0,0,1,10.788,2.108,41.678,41.678,0,0,1,13.631-14.875,32.944,32.944,0,0,1,17.9-5.522,29.746,29.746,0,0,1,5.168.454,38.332,38.332,0,0,1,1.784-19.024,30.7,30.7,0,0,1,11.088-14.55,30.659,30.659,0,0,1,17.71-5.482A37.8,37.8,0,0,1-915.6,122.3a23.042,23.042,0,0,1,8.51-11.448,22.984,22.984,0,0,1,13.282-4.1,26.879,26.879,0,0,1,6.256.754,42.212,42.212,0,0,1-3.733-25.843,33.64,33.64,0,0,1,4.349-11.448,29.874,29.874,0,0,1,8.339-8.892,30.658,30.658,0,0,1,17.71-5.482,37.806,37.806,0,0,1,17.639,4.592,23.039,23.039,0,0,1,8.509-11.447,22.979,22.979,0,0,1,13.281-4.1,28.34,28.34,0,0,1,11.744,2.663,32.8,32.8,0,0,1,10.46,7.681,23.031,23.031,0,0,1,4.75-1.577v71.477L-830.5,150.382a27.792,27.792,0,0,1-1.12,5.676L-794.5,294.779V686.5l0,0Z" transform="translate(1170 126)" fill="#68d5fd"/><path d="M-842.5,537.082h-375.254l118.57-413.507-37.311-18.2a40.9,40.9,0,0,1-12.839-9.788,41.311,41.311,0,0,1-7.933-13.477,40.385,40.385,0,0,1-2.343-15.381,38.99,38.99,0,0,1,3.932-15.5,39.29,39.29,0,0,1,15.216-16.509,41.487,41.487,0,0,1,21.283-5.854,41.064,41.064,0,0,1,11.669,1.687c.06-.134.126-.27.189-.4l.005-.011.024-.049,0-.005.017-.036A53.182,53.182,0,0,1-1087.093,7.9,54.192,54.192,0,0,1-1058.9,0a53.966,53.966,0,0,1,11.985,1.349A54.482,54.482,0,0,1-1035.175,5.5a54.74,54.74,0,0,1,11.8,7.776A53.72,53.72,0,0,1-1014.2,23.54a53.5,53.5,0,0,1,6.228,12.187,53.8,53.8,0,0,1,2.954,13.537c1.315-.128,2.641-.193,3.94-.193a40.345,40.345,0,0,1,9.071,1.035A40.977,40.977,0,0,1-983.29,53.2a40.423,40.423,0,0,1,17.658,16.684A40.634,40.634,0,0,1-961.4,81.036,40.153,40.153,0,0,1-960.6,93a29.808,29.808,0,0,1,8.969-2.934,30.077,30.077,0,0,1,4.687-.369,30.4,30.4,0,0,1,7.759,1.015,32.614,32.614,0,0,1,7.341,2.949,36.078,36.078,0,0,1,6.672,4.739,40.432,40.432,0,0,1,5.747,6.384,23.053,23.053,0,0,1,12.679-6.553,22.379,22.379,0,0,1,3.489-.275,22.989,22.989,0,0,1,8.308,1.574,26.407,26.407,0,0,1,7.416,4.411,30.421,30.421,0,0,1,5.981,6.787,33.513,33.513,0,0,1,4.005,8.7,23.961,23.961,0,0,1,11.053,3.061,29.458,29.458,0,0,1,9.075,7.888,42.315,42.315,0,0,1,14.92-5.306V537.081Z" transform="translate(1218 275.419)" fill="#68d5fd"/></g></svg>