<svg xmlns="http://www.w3.org/2000/svg" xmlns:xlink="http://www.w3.org/1999/xlink" width="202.985" height="307.64" viewBox="0 0 202.985 307.64"><defs><filter id="a" x="67.133" y="0" width="72.306" height="75.757" filterUnits="userSpaceOnUse"><feOffset dy="3" input="SourceAlpha"/><feGaussianBlur stdDeviation="3" result="b"/><feFlood flood-opacity="0.161"/><feComposite operator="in" in2="b"/><feComposite in="SourceGraphic"/></filter><filter id="c" x="0" y="4.996" width="202.985" height="302.644" filterUnits="userSpaceOnUse"><feOffset dy="3" input="SourceAlpha"/><feGaussianBlur stdDeviation="3" result="d"/><feFlood flood-opacity="0.161"/><feComposite operator="in" in2="d"/><feComposite in="SourceGraphic"/></filter></defs><g transform="translate(-0.039 6)"><g transform="translate(9.039 0)"><g transform="matrix(1, 0, 0, 1, -9, -6)" filter="url(#a)"><path d="M27.153,0c15,0,27.153,12.929,27.153,28.879S42.149,57.757,27.153,57.757,0,44.828,0,28.879,12.157,0,27.153,0Z" transform="translate(76.13 6)" fill="#fff"/></g><g transform="matrix(1, 0, 0, 1, -9, -6)" filter="url(#c)"><path d="M190.654,4.553a11.007,11.007,0,0,0-16.248,0L119.3,63.148a26.539,26.539,0,0,0-15.214-4.825A26.83,26.83,0,0,0,85.941,65.48L28.655,4.553a11.013,11.013,0,0,0-16.253,0,12.789,12.789,0,0,0,0,17.286L72.78,86.055a11.482,11.482,0,0,0,3.392,2.456v69.36a31.528,31.528,0,0,0,.343,4.414,12.933,12.933,0,0,0-.333,2.826V273.376c0,6.757,5.146,12.235,11.494,12.235s11.494-5.467,11.494-12.235V187.069a24.862,24.862,0,0,0,9.856,0v86.312c0,6.757,5.141,12.235,11.494,12.235s11.494-5.467,11.494-12.235V165.112a13.255,13.255,0,0,0-.343-2.857,31.844,31.844,0,0,0,.333-4.388V88.008a32.04,32.04,0,0,0-.217-3.551l58.867-62.618A12.769,12.769,0,0,0,190.654,4.553Z" transform="translate(-0.04 10.02)" fill="#fff"/></g></g></g></svg>