<svg xmlns="http://www.w3.org/2000/svg" xmlns:xlink="http://www.w3.org/1999/xlink" width="139.504" height="305.522" viewBox="0 0 139.504 305.522"><defs><filter id="a" x="36.085" y="0" width="66.403" height="66.403" filterUnits="userSpaceOnUse"><feOffset dy="3" input="SourceAlpha"/><feGaussianBlur stdDeviation="3" result="b"/><feFlood flood-opacity="0.161"/><feComposite operator="in" in2="b"/><feComposite in="SourceGraphic"/></filter><filter id="c" x="0" y="59.07" width="139.504" height="246.452" filterUnits="userSpaceOnUse"><feOffset dy="3" input="SourceAlpha"/><feGaussianBlur stdDeviation="3" result="d"/><feFlood flood-opacity="0.161"/><feComposite operator="in" in2="d"/><feComposite in="SourceGraphic"/></filter></defs><g transform="translate(-6.459 6)"><g transform="translate(15.459 0)"><g transform="matrix(1, 0, 0, 1, -9, -6)" filter="url(#a)"><path d="M24.2,0A24.2,24.2,0,1,1,0,24.2,24.2,24.2,0,0,1,24.2,0Z" transform="translate(45.08 6)" fill="#fff"/></g><g transform="matrix(1, 0, 0, 1, -9, -6)" filter="url(#c)"><path d="M84.176,11.873a44.06,44.06,0,0,0-18.51.226c-40.236,4.715-53.3,51.287-49.611,86.8,1.6,15.352,25.8,15.513,24.185,0-1.342-12.941-.768-32.471,6.111-46.352v50.61c0,.6.059,1.154.086,1.729-.016.274-.081.5-.081.784,0,40.16-.07,80.3-1.729,120.433-.736,17.838,26.924,17.769,27.654,0,1.3-31.451,1.627-62.918,1.7-94.39a32,32,0,0,0,3.931.011c.081,31.472.4,62.939,1.686,94.379.736,17.769,28.4,17.838,27.654,0-1.659-40.128-1.718-80.273-1.718-120.433a15.155,15.155,0,0,0-.419-3.469c-.038-17.436-.7-34.887-.5-52.312,8.237,13.945,8.989,35.215,7.561,49-1.622,15.5,22.585,15.347,24.185,0C140.14,62.639,126.447,14.859,84.176,11.873Z" transform="translate(-6.46 54.07)" fill="#fff"/></g></g></g></svg>