<svg xmlns="http://www.w3.org/2000/svg" width="230.163" height="265.472" viewBox="0 0 230.163 265.472"><path d="M-822.869,431.972h0c-.84,0-1.724-2.258-2.63-6.712V166.5h227.355a104.494,104.494,0,0,0,1.644,12.008l0,.015a53.888,53.888,0,0,1,1.162,9.2,12.188,12.188,0,0,1-2.129,7.352c-1.563,2.216-4.113,4.194-7.795,6.045a89.722,89.722,0,0,1-15.986,5.717c-13.371,3.694-33.919,7.755-66.625,13.169-21,3.475-39.462,7.2-54.88,11.078a262.059,262.059,0,0,0-36.465,11.595c-9.033,3.783-16,7.789-20.7,11.908a27.29,27.29,0,0,0-5.263,6.008,16.2,16.2,0,0,0-2.314,6.01,15.106,15.106,0,0,0,.523,6.774,23.862,23.862,0,0,0,3.4,6.709c2.932,4.179,7.347,8.455,13.5,13.072,11.225,8.428,26.106,16.351,40.387,23.744a30.78,30.78,0,0,1,7.263,5.081,20.947,20.947,0,0,1,4.416,6.052c1.968,4.133,2.448,8.979,1.427,14.4-1.569,8.332-6.656,18.121-15.12,29.1a189.614,189.614,0,0,1-12.861,14.86c-4.4,4.615-9.256,9.327-14.426,14.006a303.436,303.436,0,0,1-27.643,22.268c-7.923,5.589-13.975,9.065-16.188,9.3Z" transform="translate(825.5 -166.5)" fill="#ffced4"/></svg>