<svg xmlns="http://www.w3.org/2000/svg" width="177.108" height="226.234" viewBox="0 0 177.108 226.234"><path d="M-687.038,292.769h0a118.972,118.972,0,0,1-15.865-1.03,88.338,88.338,0,0,1-17.272-4.038c-13.2-4.622-23.038-12.291-29.241-22.793-2.211-3.741-2.814-6.967-1.844-9.86a10.535,10.535,0,0,1,2.654-4.094,22.61,22.61,0,0,1,4.522-3.394,96.126,96.126,0,0,1,12.224-5.648c4.971-2.032,10.111-4.134,14-6.714a18.9,18.9,0,0,0,4.8-4.311,10.073,10.073,0,0,0,2.1-5.432c.453-6.177-4.692-13.959-15.729-23.792a250.374,250.374,0,0,0-24.209-18.528c-10.52-7.232-23.415-15.382-38.325-24.225-12.459-7.389-23.261-14.283-32.108-20.489a192.024,192.024,0,0,1-21.2-16.838c-5.246-4.957-9-9.531-11.163-13.594a20.044,20.044,0,0,1-2.093-5.709,12.136,12.136,0,0,1,.086-5.05,13.412,13.412,0,0,1,4.353-6.8,33.587,33.587,0,0,1,9.145-5.47c7.209-3.085,17.316-5.627,30.9-7.773,25.612-4.046,60.027-6.158,99.876-8.6h.019l.861-.053c10.248-.63,20.839-1.28,31.645-1.99V292.516C-681.6,292.684-684.34,292.769-687.038,292.769Z" transform="translate(856 -66.535)" fill="#ffced4"/></svg>