<svg xmlns="http://www.w3.org/2000/svg" width="301.043" height="374.998" viewBox="0 0 301.043 374.998"><path d="M431.543,433.924H132.318s-.019-.046-.036-.088c-.763-1.934-1.5-3.848-1.782-4.581V58.927c.638.12,1.233.236,1.818.356,48.3,9.9,85.319,20.964,110.026,32.9,9.665,4.668,17.44,9.477,23.107,14.295,4.51,3.834,7.7,7.677,9.479,11.421a14.606,14.606,0,0,1,1.6,7.278,7.417,7.417,0,0,1-.607,2.64c-.024.062-3.085,8.087-7.248,20.085-3.866,11.141-9.539,28.186-14.612,46.122-5.7,20.157-9.495,37.3-11.278,50.967a109.648,109.648,0,0,0-1.046,20.677c.4,6.17,1.68,10.86,3.8,13.94a10.548,10.548,0,0,0,3.715,3.406,10.821,10.821,0,0,0,5.134,1.192c3.821,0,8.557-1.587,14.077-4.716a59.33,59.33,0,0,1,29.643-7.608,84.51,84.51,0,0,1,27.315,4.9,131.768,131.768,0,0,1,26.931,13.1A179.923,179.923,0,0,1,377.2,308.75a193.569,193.569,0,0,1,21.07,22.236c8.787,10.91,15.7,22.093,19.984,32.341a67.264,67.264,0,0,1,4.443,14.766,33.937,33.937,0,0,1-.044,12.707c-2.314,10.611-3.129,19.521-2.424,26.482.549,5.413,2.009,9.635,4.338,12.55A11.228,11.228,0,0,0,429.3,433.4a7.68,7.68,0,0,0,2.238.52l0,0h0Z" transform="translate(-130.5 -58.927)" fill="#ccb1fd"/></svg>