<svg xmlns="http://www.w3.org/2000/svg" width="374.106" height="581.195" viewBox="0 0 374.106 581.195"><path d="M-825.5,615.5h-374.106V44.3a53.579,53.579,0,0,1,6.977-.457,54.182,54.182,0,0,1,9.422.832,54.239,54.239,0,0,1,13.418,4.223,53.406,53.406,0,0,1,11.592,7.339,53.735,53.735,0,0,1,15.837,22.2,39.811,39.811,0,0,1,14.777-2.832,40.719,40.719,0,0,1,7.082.625,40.155,40.155,0,0,1,21.465,11.17,40.67,40.67,0,0,1,7.107,9.555,40.257,40.257,0,0,1,4.042,11.278,29.683,29.683,0,0,1,7.772-5.293,29.772,29.772,0,0,1,12.731-2.816,33.218,33.218,0,0,1,11.378,2.056,38.987,38.987,0,0,1,10.73,6.03,22.978,22.978,0,0,1,10.328-9.794,22.25,22.25,0,0,1,9.51-2.1,26.474,26.474,0,0,1,13.388,3.818,32.726,32.726,0,0,1,10.844,10.607,22.986,22.986,0,0,1,5.828-.743,25.7,25.7,0,0,1,8.488,1.477,29.64,29.64,0,0,1,7.936,4.243c7.65-7.99,17.718-12.572,27.62-12.572a29.976,29.976,0,0,1,12.837,2.82,38.384,38.384,0,0,1,6.616-17.913,31.858,31.858,0,0,1,6.325-6.674,29.583,29.583,0,0,1,8.094-4.507,29.712,29.712,0,0,1,10.237-1.809c8.529,0,17.057,3.591,24.012,10.111a22.944,22.944,0,0,1,11.139-8.851,22.164,22.164,0,0,1,7.637-1.348,25.3,25.3,0,0,1,12.028,3.185,42.351,42.351,0,0,1,3.063-25.931,33.614,33.614,0,0,1,7.134-9.93,29.723,29.723,0,0,1,10.317-6.428,29.7,29.7,0,0,1,6.392-1.562V615.5h0Z" transform="translate(1199.607 -34.306)" fill="#fff"/></svg>