<svg xmlns="http://www.w3.org/2000/svg" width="80.435" height="373.11" viewBox="0 0 80.435 373.11"><path d="M187.5,429.611l0,0a362.619,362.619,0,0,1-25.621-33.453A332.187,332.187,0,0,1,141.9,362.494a315.681,315.681,0,0,1-14.886-33.541,310.5,310.5,0,0,1-10.345-33.1c-9.74-38.651-12.084-79.494-6.968-121.4a381.828,381.828,0,0,1,9.454-49.537A388.364,388.364,0,0,1,131.36,86.307,315.237,315.237,0,0,1,144.218,56.5h2.741l.065.5H187.5V368h-.089l.089.687v60.924Z" transform="translate(-107.066 -56.5)" fill="#ccb1fd"/></svg>