<svg xmlns="http://www.w3.org/2000/svg" width="375.254" height="537.082" viewBox="0 0 375.254 537.082"><path d="M-842.5,537.082h-375.254l118.57-413.507-37.311-18.2a40.9,40.9,0,0,1-12.839-9.788,41.311,41.311,0,0,1-7.933-13.477,40.385,40.385,0,0,1-2.343-15.381,38.99,38.99,0,0,1,3.932-15.5,39.29,39.29,0,0,1,15.216-16.509,41.487,41.487,0,0,1,21.283-5.854,41.064,41.064,0,0,1,11.669,1.687c.06-.134.126-.27.189-.4l.005-.011.024-.049,0-.005.017-.036A53.182,53.182,0,0,1-1087.093,7.9,54.192,54.192,0,0,1-1058.9,0a53.966,53.966,0,0,1,11.985,1.349A54.482,54.482,0,0,1-1035.175,5.5a54.74,54.74,0,0,1,11.8,7.776A53.72,53.72,0,0,1-1014.2,23.54a53.5,53.5,0,0,1,6.228,12.187,53.8,53.8,0,0,1,2.954,13.537c1.315-.128,2.641-.193,3.94-.193a40.345,40.345,0,0,1,9.071,1.035A40.977,40.977,0,0,1-983.29,53.2a40.423,40.423,0,0,1,17.658,16.684A40.634,40.634,0,0,1-961.4,81.036,40.153,40.153,0,0,1-960.6,93a29.808,29.808,0,0,1,8.969-2.934,30.077,30.077,0,0,1,4.687-.369,30.4,30.4,0,0,1,7.759,1.015,32.614,32.614,0,0,1,7.341,2.949,36.078,36.078,0,0,1,6.672,4.739,40.432,40.432,0,0,1,5.747,6.384,23.053,23.053,0,0,1,12.679-6.553,22.379,22.379,0,0,1,3.489-.275,22.989,22.989,0,0,1,8.308,1.574,26.407,26.407,0,0,1,7.416,4.411,30.421,30.421,0,0,1,5.981,6.787,33.513,33.513,0,0,1,4.005,8.7,23.961,23.961,0,0,1,11.053,3.061,29.458,29.458,0,0,1,9.075,7.888,42.315,42.315,0,0,1,14.92-5.306V537.081Z" transform="translate(1217.755)" fill="#68d5fd"/></svg>