<svg xmlns="http://www.w3.org/2000/svg" width="375.447" height="641.606" viewBox="0 0 375.447 641.606"><path d="M-794.5,686.5l-311.8,0-63.65-237.9V181.362c.5.641.973,1.261,1.393,1.841a40.431,40.431,0,0,1,20.618-7.818c1.189-.1,2.394-.157,3.582-.157a40.386,40.386,0,0,1,21.554,6.229,40.387,40.387,0,0,1,14.749,16.357,29.845,29.845,0,0,1,6.168-7.134,29.961,29.961,0,0,1,9.4-5.349,32.4,32.4,0,0,1,10.735-1.787,38.234,38.234,0,0,1,15,3.164,23.032,23.032,0,0,1,7.481-12.146,23.172,23.172,0,0,1,15.133-5.337,28.841,28.841,0,0,1,10.8,2.154,33.057,33.057,0,0,1,9.965,6.312,24.368,24.368,0,0,1,12.069-3.09,29.256,29.256,0,0,1,10.788,2.108,41.678,41.678,0,0,1,13.631-14.875,32.944,32.944,0,0,1,17.9-5.522,29.746,29.746,0,0,1,5.168.454,38.332,38.332,0,0,1,1.784-19.024,30.7,30.7,0,0,1,11.088-14.55,30.659,30.659,0,0,1,17.71-5.482A37.8,37.8,0,0,1-915.6,122.3a23.042,23.042,0,0,1,8.51-11.448,22.984,22.984,0,0,1,13.282-4.1,26.879,26.879,0,0,1,6.256.754,42.212,42.212,0,0,1-3.733-25.843,33.64,33.64,0,0,1,4.349-11.448,29.874,29.874,0,0,1,8.339-8.892,30.658,30.658,0,0,1,17.71-5.482,37.806,37.806,0,0,1,17.639,4.592,23.039,23.039,0,0,1,8.509-11.447,22.979,22.979,0,0,1,13.281-4.1,28.34,28.34,0,0,1,11.744,2.663,32.8,32.8,0,0,1,10.46,7.681,23.031,23.031,0,0,1,4.75-1.577v71.477L-830.5,150.382a27.792,27.792,0,0,1-1.12,5.676L-794.5,294.779V686.5l0,0Z" transform="translate(1169.946 -44.896)" fill="#68d5fd"/></svg>