<svg xmlns="http://www.w3.org/2000/svg" width="154.804" height="385.508" viewBox="0 0 154.804 385.508"><path d="M-376.5,490.008V104.5h131.606c5.5,13.377,11.169,31.876,17.34,56.556a209.689,209.689,0,0,1,4.1,20.576,166.88,166.88,0,0,1,1.688,18.744,137.053,137.053,0,0,1-.5,17.011,117.09,117.09,0,0,1-2.463,15.373,102.966,102.966,0,0,1-9.914,26.224,104.661,104.661,0,0,1-15.066,20.843,126.834,126.834,0,0,1-18.417,16.24A170.47,170.47,0,0,1-288.1,308.482c-13.432,7.175-26.717,12.326-37.392,16.465-6.884,2.668-12.829,4.972-16.97,7.121a21.749,21.749,0,0,0-4.8,3.148,4.354,4.354,0,0,0-1.681,3.161c.024,1.794,1.734,3.668,5.225,5.729,3.574,2.109,9.122,4.482,16.962,7.254a75.877,75.877,0,0,1,12.539,5.649,45.722,45.722,0,0,1,9,6.659,31.347,31.347,0,0,1,5.789,7.527,27.728,27.728,0,0,1,2.9,8.252,34.845,34.845,0,0,1-.261,12.926,60.171,60.171,0,0,1-4.646,13.716,107.356,107.356,0,0,1-8.054,14.079c-2.977,4.454-6.5,9.168-10.484,14.011-15.169,18.451-34.132,35.508-46.68,46.795l-.014.013-.007.006c-4.2,3.781-7.522,6.767-9.828,9.014Z" transform="translate(376.5 -104.5)" fill="#c2f2d4"/></svg>